<svg xmlns="http://www.w3.org/2000/svg" width="155.534" height="43.534" viewBox="0 0 155.534 43.534">
  <g id="logo" transform="translate(-100 -21.653)">
    <path id="패스_1" data-name="패스 1" d="M22.2,25.711c-.623-5.659,5.311-10.2,13.247-10.138s14.882,4.7,15.5,10.353-5.3,10.2-13.245,10.135S22.824,31.365,22.2,25.711M52.43,27.465c-.718-7.018-8.706-12.764-17.844-12.84S18.617,20.177,19.334,27.194s8.708,12.768,17.848,12.845S53.151,34.486,52.43,27.465" transform="translate(95.524 18.259)" fill="#fbb584"/>
    <path id="패스_2" data-name="패스 2" d="M38.239,41.9c-4.5,4.709-11.727,5.1-16.138.875s-4.336-11.456.169-16.16S34,21.526,38.407,25.745,42.743,37.2,38.239,41.9M21.562,26.468c-5.232,5.466-5.316,13.874-.194,18.782S34.9,49.7,40.126,44.236s5.321-13.874.192-18.781S26.794,21,21.562,26.468" transform="translate(95.919 16.535)" fill="#f89b6c"/>
    <path id="패스_3" data-name="패스 3" d="M17.96,3.747c9.362-3.507,18.62.04,20.676,7.924S34.775,28.8,25.412,32.3,6.791,32.267,4.735,24.378,8.6,7.256,17.96,3.747M9.264,6.76C-.448,14.45-2.92,25.6,3.741,31.646s19.937,4.728,29.651-2.962S45.581,9.854,38.915,3.8,18.977-.931,9.264,6.76" transform="translate(100 21.653)" fill="#f37321"/>
    <path id="합치기_1" data-name="합치기 1" d="M-1903.561,22.213V3.743h2.58v18.47Zm-21.178,0V18.751a5.061,5.061,0,0,1-3.44,1.031h-10.836v-2h4.966V15.826a4.759,4.759,0,0,1-2.344-1.031,3.24,3.24,0,0,1-1.333-2.623,3.323,3.323,0,0,1,1.376-2.644,5.526,5.526,0,0,1,3.569-1.1,5.566,5.566,0,0,1,3.568,1.1,3.383,3.383,0,0,1,1.376,2.644,3.3,3.3,0,0,1-1.333,2.623,5.131,5.131,0,0,1-2.3,1.031v1.957h2.859c2.58,0,3.87-.989,3.87-2.989V3.743h2.559V9.936h2.667v2.041h-2.667V22.212Zm-9.761-11.417a1.689,1.689,0,0,0-.731,1.376,1.67,1.67,0,0,0,.731,1.4,2.59,2.59,0,0,0,1.721.559,2.728,2.728,0,0,0,1.742-.559,1.7,1.7,0,0,0,.709-1.4,1.725,1.725,0,0,0-.709-1.376,2.866,2.866,0,0,0-1.742-.559A2.715,2.715,0,0,0-1934.5,10.795ZM-1870,22.17c-2.065,0-3.074-.925-3.074-2.774V15.741h12.814a1.241,1.241,0,0,1,1.418,1.376V22.17Zm-.517-2.967c0,.688.345,1.011,1.054,1.011h8.063V17.7h-9.117Zm-83.443,2.966c-2.3,0-3.44-1.054-3.44-3.2V16.9h2.58v1.763c0,1.032.494,1.526,1.483,1.526h10v1.978Zm56.181-1.87V18.213h18.856V20.3Zm-13.072-5.053a7.344,7.344,0,0,1-1.054-1.634,8.236,8.236,0,0,1-1.053,1.634,8.779,8.779,0,0,1-5.009,3.054V16.257a6.718,6.718,0,0,0,3.267-2.6c1.011-1.462,1.526-3.762,1.526-6.9V4.023h2.537V6.754c0,3.139.495,5.44,1.526,6.9a6.722,6.722,0,0,0,3.269,2.6V18.3A8.642,8.642,0,0,1-1910.849,15.246Zm-35.132,1.762V3.742h2.559v4.73h2.667v2.021h-2.667v6.514Zm-11.8-2.192a3.267,3.267,0,0,1-1.376-2.645,3.323,3.323,0,0,1,1.376-2.644,5.527,5.527,0,0,1,3.569-1.1,5.567,5.567,0,0,1,3.568,1.1,3.383,3.383,0,0,1,1.376,2.644,3.324,3.324,0,0,1-1.376,2.645,5.453,5.453,0,0,1-3.568,1.118A5.415,5.415,0,0,1-1957.785,14.816Zm1.85-4.021a1.687,1.687,0,0,0-.732,1.376,1.668,1.668,0,0,0,.732,1.4,2.585,2.585,0,0,0,1.72.559,2.728,2.728,0,0,0,1.741-.559,1.7,1.7,0,0,0,.709-1.4,1.723,1.723,0,0,0-.709-1.376,2.86,2.86,0,0,0-1.741-.559A2.705,2.705,0,0,0-1955.936,10.795Zm69.489,2.086a7.206,7.206,0,0,1-1.892-2.214,7.934,7.934,0,0,1-1.914,2.214,10.389,10.389,0,0,1-6.3,2.3V13.2a7.4,7.4,0,0,0,4.666-2.085c1.483-1.375,2.236-3.4,2.236-6.106V4h2.6V5.012c0,2.709.731,4.73,2.236,6.106a7.354,7.354,0,0,0,4.666,2.085v1.979A10.343,10.343,0,0,1-1886.447,12.881Zm25.091,1.935V3.743h2.516V14.816Zm-4,0V10h-2.322V7.979h2.322V3.743h2.472V14.816Zm-7.418-.516c-2.215,0-3.311-1.011-3.311-3.053V3.894h8V5.85h-5.526V8.022h4.644V9.957h-4.644v.989c0,.946.452,1.4,1.354,1.4h5.1V14.3Zm-65.835-6.494V5.958h11.568V7.807Zm-21.393,0V5.957h11.568v1.85Zm24.253-2.516V3.421h5.934v1.87Zm-21.436,0V3.42h5.934V5.291Z" transform="translate(2113.874 30.848)" fill="#fff" stroke="rgba(0,0,0,0)" stroke-miterlimit="10" stroke-width="1"/>
    <rect id="사각형_3" data-name="사각형 3" width="155.034" height="43.533" transform="translate(100 21.654)" fill="none"/>
  </g>
</svg>
